<?xml version="1.0" encoding="UTF-8"?>
<svg width="769px" height="124px" viewBox="0 0 769 124" version="1.1" xmlns="http://www.w3.org/2000/svg" xmlns:xlink="http://www.w3.org/1999/xlink">
    <!-- Generator: Sketch 47.1 (45422) - http://www.bohemiancoding.com/sketch -->
    <title>algolia-logo</title>
    <desc>Created with Sketch.</desc>
    <defs></defs>
    <g id="Page-1" stroke="none" stroke-width="1" fill="none" fill-rule="evenodd">
        <g id="algolia-logo" transform="translate(-4.000000, 0.000000)">
            <path d="M617.602907,47.0181121 L611.907729,67.1993038 L630.249783,57.1465713 C627.58596,52.2621928 623.040498,48.5689338 617.602907,47.0181121 Z" id="Fill-1" fill="#46AEDA" fill-rule="nonzero"></path>
            <path d="M585.455755,33.4002509 C583.002399,30.9359747 579.022371,30.9375523 576.569015,33.4002509 L575.458566,34.5156436 C573.00521,36.9783421 573.006781,40.976086 575.458566,43.4403623 L576.641265,44.6267488 C579.159018,40.5690545 582.364715,36.987808 586.090297,34.0391958 L585.455755,33.4002509 Z" id="Fill-2" fill="#46AEDA" fill-rule="nonzero"></path>
            <path d="M623.840877,27.223784 C623.850301,27.0881068 623.880143,26.9587402 623.880143,26.8199077 L623.880143,23.6646244 C623.878572,20.1811917 621.067108,17.3556356 617.597542,17.3540579 L606.601419,17.3540579 C603.133424,17.3556356 600.320389,20.1796141 600.320389,23.6646244 L600.320389,26.7646902 C603.821368,25.7802419 607.504543,25.2422661 611.314941,25.2422661 C615.682919,25.2422661 619.890691,25.9427389 623.840877,27.223784" id="Fill-3" fill="#46AEDA" fill-rule="nonzero"></path>
            <path d="M611.760635,41.5528326 C625.54501,41.5528326 636.760635,52.7684576 636.760635,66.5528326 C636.760635,80.3372076 625.54501,91.5528326 611.760635,91.5528326 C597.97626,91.5528326 586.760635,80.3372076 586.760635,66.5528326 C586.760635,52.7684576 597.97626,41.5528326 611.760635,41.5528326 L611.760635,41.5528326 Z M576.760635,66.5528326 C576.760635,85.8807871 592.427907,101.552833 611.760635,101.552833 C631.093362,101.552833 646.760635,85.8807871 646.760635,66.5528326 C646.760635,47.224878 631.093362,31.5528326 611.760635,31.5528326 C592.427907,31.5528326 576.760635,47.224878 576.760635,66.5528326 Z" id="Fill-4" fill="#46AEDA" fill-rule="nonzero"></path>
            <path d="M451.582949,99.6564664 C450.139521,95.8212196 448.78405,92.0522338 447.511823,88.3463536 C446.239597,84.6404734 444.923392,80.8699099 443.56792,77.0362407 L403.620001,77.0362407 L395.604973,99.6564664 L382.755483,99.6564664 C386.146517,90.2852752 389.327084,81.617712 392.297183,73.6506218 C395.265712,65.6851092 398.168274,58.1234729 401.012722,50.9688681 C403.852457,43.811108 406.673345,36.9751869 409.472244,30.4579493 C412.271143,23.9407117 415.197264,17.4881575 418.250609,11.0987089 L429.573426,11.0987089 C432.626771,17.4881575 435.552892,23.9407117 438.351791,30.4579493 C441.15069,36.9751869 443.970007,43.811108 446.812884,50.9688681 C449.65262,58.1234729 452.556752,65.6851092 455.526852,73.6506218 C458.495381,81.617712 461.675947,90.2852752 465.068552,99.6564664 L451.582949,99.6564664 L451.582949,99.6564664 Z M440.005686,66.8147006 C437.290031,59.4013626 434.597937,52.2262485 431.927831,45.28147 C429.254584,38.3382692 426.476104,31.6727333 423.593961,25.2817071 C420.623861,31.6727333 417.804544,38.3382692 415.134438,45.28147 C412.462762,52.2262485 409.809934,59.4013626 407.182236,66.8147006 L440.005686,66.8147006 L440.005686,66.8147006 Z" id="Fill-5" fill="#0C1724" fill-rule="nonzero"></path>
            <path d="M496.109313,100.932779 C488.815214,100.762393 483.643062,99.1879069 480.589718,96.2045865 C477.534803,93.2244215 476.011273,88.5814222 476.011273,82.2755886 L476.011273,2.5352701 L487.83984,0.490646547 L487.83984,80.358754 C487.83984,82.3213402 488.011041,83.9384229 488.34873,85.2163126 C488.689562,86.4926247 489.24086,87.5165141 490.002625,88.2832479 C490.765961,89.0484041 491.785313,89.6242433 493.05754,90.0076102 C494.331337,90.3909771 495.898846,90.7112384 497.763208,90.9668163 L496.109313,100.932779" id="Fill-6" fill="#0C1724" fill-rule="nonzero"></path>
            <path d="M552.468957,93.0098622 C551.452747,93.6945587 549.48001,94.5654169 546.553889,95.630325 C543.627767,96.6952331 540.213173,97.228476 536.311678,97.228476 C532.325368,97.228476 528.571513,96.5879535 525.053257,95.3116414 C521.53343,94.032174 518.458096,92.0522338 515.828828,89.3686654 C513.199559,86.6835193 511.121589,83.3420743 509.594917,79.3380199 C508.069815,75.3339654 507.304909,70.5631771 507.304909,65.025655 C507.304909,60.1696741 508.024267,55.7175694 509.467694,51.6709186 C510.909551,47.6258455 513.00794,44.1313693 515.766002,41.1922229 C518.520922,38.2530766 521.891538,35.9528751 525.879419,34.2916185 C529.865729,32.6303618 534.36093,31.7989447 539.365022,31.7989447 C544.878005,31.7989447 549.690477,32.2059762 553.805581,33.0137287 C557.919114,33.8246365 561.374545,34.5692834 564.173443,35.2492469 L564.173443,94.5449075 C564.173443,104.768025 561.545745,112.178208 556.287208,116.778611 C551.02553,121.379014 543.05448,123.677638 532.367775,123.677638 C528.211835,123.677638 524.289921,123.340023 520.600463,122.658481 C516.911006,121.973785 513.70845,121.16761 510.995937,120.230491 L513.158722,109.879584 C515.531975,110.813548 518.437678,111.646543 521.87269,112.37068 C525.307702,113.09324 528.890355,113.457675 532.622221,113.457675 C539.661875,113.457675 544.728793,112.051997 547.826115,109.239062 C550.921867,106.429282 552.468957,101.95509 552.468957,95.8212196 L552.468957,93.0098622 L552.468957,93.0098622 Z M547.57167,42.7256906 C545.576944,42.429094 542.884849,42.2776404 539.493816,42.2776404 C533.132682,42.2776404 528.233824,44.3680155 524.798812,48.5408776 C521.363799,52.7153174 519.647079,58.2512619 519.647079,65.1518664 C519.647079,68.9871132 520.13241,72.2670301 521.109354,74.9931948 C522.084728,77.7209372 523.399362,79.9753871 525.053257,81.7660104 C526.707152,83.5534783 528.615492,84.875542 530.778277,85.7258908 C532.941063,86.579395 535.168245,87.0037806 537.458253,87.0037806 C540.594841,87.0037806 543.478555,86.557308 546.107824,85.6627852 C548.735522,84.7666847 550.815063,83.7254413 552.341735,82.5327442 L552.341735,43.6848967 C551.152753,43.3441261 549.564825,43.0254425 547.57167,42.7256906 Z" id="Fill-7" fill="#0C1724" fill-rule="nonzero"></path>
            <path d="M679.035098,100.934356 C671.739428,100.762393 666.567276,99.1894845 663.513932,96.2061642 C660.460588,93.2259991 658.933916,88.5814222 658.933916,82.2771662 L658.933916,2.53684774 L670.767195,0.492224188 L670.767195,80.358754 C670.767195,82.3213402 670.935255,83.9384229 671.274515,85.2163126 C671.613776,86.4942023 672.165074,87.5165141 672.929981,88.2832479 C673.691746,89.0499818 674.707957,89.6258209 675.981754,90.0091879 C677.253981,90.3925548 678.82149,90.7112384 680.688993,90.9668163 L679.035098,100.934356" id="Fill-8" fill="#0C1724" fill-rule="nonzero"></path>
            <path d="M699.770823,21.1940376 C697.652016,21.1940376 695.847339,20.4904095 694.366216,19.0863084 C692.880381,17.6790521 692.139034,15.7858821 692.139034,13.3989104 C692.139034,11.0135162 692.880381,9.11719097 694.366216,7.71308992 C695.847339,6.30583359 697.652016,5.60378307 699.770823,5.60378307 C701.891201,5.60378307 703.694308,6.30583359 705.180143,7.71308992 C706.661266,9.11719097 707.405754,11.0135162 707.405754,13.3989104 C707.405754,15.7858821 706.661266,17.6790521 705.180143,19.0863084 C703.694308,20.4904095 701.891201,21.1940376 699.770823,21.1940376 L699.770823,21.1940376 Z M693.920151,33.206201 L705.75186,33.206201 L705.75186,99.6564664 L693.920151,99.6564664 L693.920151,33.206201 Z" id="Fill-9" fill="#0C1724" fill-rule="nonzero"></path>
            <path d="M747.479326,31.5449444 C752.228972,31.5449444 756.235701,32.1649575 759.502653,33.3986733 C762.766465,34.6339667 765.395733,36.380416 767.388889,38.6364435 C769.382044,40.8956263 770.803482,43.5791947 771.651633,46.6887264 C772.498214,49.798258 772.92386,53.2264733 772.92386,56.9749498 L772.92386,98.5079433 C771.906079,98.6783286 770.48464,98.9118196 768.662686,99.2099938 C766.83759,99.5081681 764.781609,99.7842554 762.491601,100.039833 C760.201593,100.295411 757.719965,100.528902 755.04986,100.741884 C752.376613,100.953288 749.725355,101.062145 747.097658,101.062145 C743.364222,101.062145 739.93078,100.678778 736.792621,99.9120444 C733.654462,99.1453105 730.940378,97.9305265 728.65037,96.2708475 C726.360362,94.6095909 724.579245,92.416669 723.307018,89.6889266 C722.034791,86.9627619 721.398678,83.6828449 721.398678,79.8491758 C721.398678,76.1874696 722.140025,73.0337639 723.62586,70.3927918 C725.106983,67.7533974 727.122127,65.6235812 729.668151,64.0033433 C732.212605,62.3862606 735.181134,61.1919859 738.573739,60.425252 C741.964772,59.6585182 745.527007,59.2751513 749.260443,59.2751513 C750.446284,59.2751513 751.677674,59.338257 752.949901,59.4660459 C754.222127,59.5938349 755.431528,59.7673755 756.574961,59.9787795 C757.719965,60.1917611 758.717328,60.3826557 759.56705,60.553041 C760.413631,60.7250039 761.007336,60.8527929 761.346597,60.9364079 L761.346597,57.6138947 C761.346597,55.6544637 761.134559,53.7171198 760.710484,51.7987076 C760.284837,49.881873 759.521501,48.1795977 758.420475,46.6887264 C757.317879,45.197855 755.811625,44.005158 753.903285,43.1090575 C751.994945,42.2161124 749.513318,41.7680621 746.461544,41.7680621 C742.558478,41.7680621 739.147026,42.0457271 736.219334,42.5994793 C733.294783,43.1532315 731.110008,43.7290707 729.668151,44.3238416 L728.268702,34.4840907 C729.795374,33.8041272 732.341398,33.1430953 735.902062,32.5041505 C739.464297,31.863628 743.323385,31.5449444 747.479326,31.5449444 L747.479326,31.5449444 Z M748.497107,91.0946053 C751.296006,91.0946053 753.777633,91.029922 755.940419,90.902133 C758.103204,90.7743441 759.90474,90.5424307 761.346597,90.2000825 L761.346597,70.3927918 C760.496875,69.9684063 759.119415,69.6055487 757.212645,69.3073744 C755.302735,69.0092001 752.992308,68.8577465 750.278224,68.8577465 C748.497107,68.8577465 746.609185,68.9871132 744.617601,69.2426911 C742.624446,69.498269 740.79935,70.0315119 739.147026,70.8392644 C737.49156,71.6501722 736.11253,72.756099 735.011504,74.1633553 C733.908907,75.5674564 733.357609,77.4211853 733.357609,79.7213868 C733.357609,83.9810192 734.71308,86.9406749 737.428734,88.6019315 C740.142818,90.2647658 743.832276,91.0946053 748.497107,91.0946053 L748.497107,91.0946053 Z" id="Fill-10" fill="#0C1724" fill-rule="nonzero"></path>
            <path d="M4.032,49.912 L10.944,49.912 L10.944,54.392 L11.072,54.392 C12.0960051,52.4719904 13.5253242,51.0960042 15.36,50.264 C17.1946758,49.4319958 19.178656,49.016 21.312,49.016 C23.9146797,49.016 26.186657,49.4746621 28.128,50.392 C30.069343,51.3093379 31.6799936,52.567992 32.96,54.168 C34.2400064,55.768008 35.1999968,57.634656 35.84,59.768 C36.4800032,61.901344 36.8,64.1839878 36.8,66.616 C36.8,68.8346778 36.5120029,70.9893229 35.936,73.08 C35.3599971,75.1706771 34.4853392,77.015992 33.312,78.616 C32.1386608,80.216008 30.656009,81.4959952 28.864,82.456 C27.071991,83.4160048 24.9600122,83.896 22.528,83.896 C21.461328,83.896 20.394672,83.800001 19.328,83.608 C18.261328,83.415999 17.2373382,83.1066688 16.256,82.68 C15.2746618,82.2533312 14.3680042,81.7093366 13.536,81.048 C12.7039958,80.3866634 12.0106694,79.6080045 11.456,78.712 L11.328,78.712 L11.328,95.224 L4.032,95.224 L4.032,49.912 Z M29.504,66.488 C29.504,64.9946592 29.3120019,63.544007 28.928,62.136 C28.5439981,60.727993 27.9680038,59.4800054 27.2,58.392 C26.4319962,57.3039946 25.4720058,56.4293366 24.32,55.768 C23.1679942,55.1066634 21.8453408,54.776 20.352,54.776 C17.2799846,54.776 14.9653411,55.842656 13.408,57.976 C11.8506589,60.109344 11.072,62.946649 11.072,66.488 C11.072,68.1520083 11.2746646,69.6986595 11.68,71.128 C12.0853354,72.5573405 12.6933293,73.7839949 13.504,74.808 C14.3146707,75.8320051 15.2853277,76.6426637 16.416,77.24 C17.5466723,77.8373363 18.8586592,78.136 20.352,78.136 C22.0160083,78.136 23.4239942,77.7946701 24.576,77.112 C25.7280058,76.4293299 26.6773296,75.5440054 27.424,74.456 C28.1706704,73.3679946 28.7039984,72.1306736 29.024,70.744 C29.3440016,69.3573264 29.504,67.9386739 29.504,66.488 Z M58.112,83.896 C55.4666534,83.896 53.1093437,83.458671 51.04,82.584 C48.9706563,81.709329 47.2213405,80.5040077 45.792,78.968 C44.3626595,77.4319923 43.2746704,75.597344 42.528,73.464 C41.7813296,71.330656 41.408,68.9840128 41.408,66.424 C41.408,63.9066541 41.7813296,61.581344 42.528,59.448 C43.2746704,57.314656 44.3626595,55.4800077 45.792,53.944 C47.2213405,52.4079923 48.9706563,51.202671 51.04,50.328 C53.1093437,49.453329 55.4666534,49.016 58.112,49.016 C60.7573466,49.016 63.1146563,49.453329 65.184,50.328 C67.2533437,51.202671 69.0026595,52.4079923 70.432,53.944 C71.8613405,55.4800077 72.9493296,57.314656 73.696,59.448 C74.4426704,61.581344 74.816,63.9066541 74.816,66.424 C74.816,68.9840128 74.4426704,71.330656 73.696,73.464 C72.9493296,75.597344 71.8613405,77.4319923 70.432,78.968 C69.0026595,80.5040077 67.2533437,81.709329 65.184,82.584 C63.1146563,83.458671 60.7573466,83.896 58.112,83.896 Z M58.112,78.136 C59.7333414,78.136 61.1413274,77.7946701 62.336,77.112 C63.5306726,76.4293299 64.5119962,75.5333389 65.28,74.424 C66.0480038,73.3146611 66.6133315,72.0666736 66.976,70.68 C67.3386685,69.2933264 67.52,67.8746739 67.52,66.424 C67.52,65.015993 67.3386685,63.608007 66.976,62.2 C66.6133315,60.791993 66.0480038,59.5440054 65.28,58.456 C64.5119962,57.3679946 63.5306726,56.4826701 62.336,55.8 C61.1413274,55.1173299 59.7333414,54.776 58.112,54.776 C56.4906586,54.776 55.0826726,55.1173299 53.888,55.8 C52.6933274,56.4826701 51.7120038,57.3679946 50.944,58.456 C50.1759962,59.5440054 49.6106685,60.791993 49.248,62.2 C48.8853315,63.608007 48.704,65.015993 48.704,66.424 C48.704,67.8746739 48.8853315,69.2933264 49.248,70.68 C49.6106685,72.0666736 50.1759962,73.3146611 50.944,74.424 C51.7120038,75.5333389 52.6933274,76.4293299 53.888,77.112 C55.0826726,77.7946701 56.4906586,78.136 58.112,78.136 Z M77.888,49.912 L85.632,49.912 L92.096,74.616 L92.224,74.616 L98.432,49.912 L105.792,49.912 L111.744,74.616 L111.872,74.616 L118.592,49.912 L126.016,49.912 L115.648,83 L108.16,83 L102.016,58.424 L101.888,58.424 L95.808,83 L88.128,83 L77.888,49.912 Z M153.408,63.544 C153.322666,62.3919942 153.077335,61.282672 152.672,60.216 C152.266665,59.149328 151.712004,58.2213373 151.008,57.432 C150.303996,56.6426627 149.450672,56.0026691 148.448,55.512 C147.445328,55.0213309 146.32534,54.776 145.088,54.776 C143.807994,54.776 142.645339,54.9999978 141.6,55.448 C140.554661,55.8960022 139.65867,56.5146627 138.912,57.304 C138.16533,58.0933373 137.568002,59.021328 137.12,60.088 C136.671998,61.154672 136.426667,62.3066605 136.384,63.544 L153.408,63.544 Z M136.384,68.344 C136.384,69.6240064 136.565332,70.8613274 136.928,72.056 C137.290668,73.2506726 137.834663,74.2959955 138.56,75.192 C139.285337,76.0880045 140.202661,76.802664 141.312,77.336 C142.421339,77.869336 143.743992,78.136 145.28,78.136 C147.413344,78.136 149.13066,77.6773379 150.432,76.76 C151.73334,75.8426621 152.703997,74.4666758 153.344,72.632 L160.256,72.632 C159.871998,74.424009 159.210671,76.023993 158.272,77.432 C157.333329,78.840007 156.202673,80.0239952 154.88,80.984 C153.557327,81.9440048 152.074675,82.6693309 150.432,83.16 C148.789325,83.6506691 147.072009,83.896 145.28,83.896 C142.67732,83.896 140.373343,83.4693376 138.368,82.616 C136.362657,81.7626624 134.666674,80.5680077 133.28,79.032 C131.893326,77.4959923 130.848004,75.661344 130.144,73.528 C129.439996,71.394656 129.088,69.0480128 129.088,66.488 C129.088,64.1413216 129.46133,61.9120106 130.208,59.8 C130.95467,57.6879894 132.021326,55.832008 133.408,54.232 C134.794674,52.631992 136.469324,51.3626714 138.432,50.424 C140.394676,49.4853286 142.613321,49.016 145.088,49.016 C147.69068,49.016 150.026656,49.5599946 152.096,50.648 C154.165344,51.7360054 155.88266,53.175991 157.248,54.968 C158.61334,56.760009 159.60533,58.818655 160.224,61.144 C160.84267,63.469345 161.002668,65.869321 160.704,68.344 L136.384,68.344 Z M166.272,49.912 L173.12,49.912 L173.12,56.312 L173.248,56.312 C173.461334,55.4159955 173.87733,54.5413376 174.496,53.688 C175.11467,52.8346624 175.861329,52.0560035 176.736,51.352 C177.610671,50.6479965 178.581328,50.0826688 179.648,49.656 C180.714672,49.2293312 181.802661,49.016 182.912,49.016 C183.765338,49.016 184.351998,49.0373331 184.672,49.08 C184.992002,49.1226669 185.322665,49.1653331 185.664,49.208 L185.664,56.248 C185.151997,56.1626662 184.629336,56.0880003 184.096,56.024 C183.562664,55.9599997 183.040003,55.928 182.528,55.928 C181.29066,55.928 180.128005,56.1733309 179.04,56.664 C177.951995,57.1546691 177.002671,57.8799952 176.192,58.84 C175.381329,59.8000048 174.741336,60.983993 174.272,62.392 C173.802664,63.800007 173.568,65.4213242 173.568,67.256 L173.568,83 L166.272,83 L166.272,49.912 Z M211.52,63.544 C211.434666,62.3919942 211.189335,61.282672 210.784,60.216 C210.378665,59.149328 209.824004,58.2213373 209.12,57.432 C208.415996,56.6426627 207.562672,56.0026691 206.56,55.512 C205.557328,55.0213309 204.43734,54.776 203.2,54.776 C201.919994,54.776 200.757339,54.9999978 199.712,55.448 C198.666661,55.8960022 197.77067,56.5146627 197.024,57.304 C196.27733,58.0933373 195.680002,59.021328 195.232,60.088 C194.783998,61.154672 194.538667,62.3066605 194.496,63.544 L211.52,63.544 Z M194.496,68.344 C194.496,69.6240064 194.677332,70.8613274 195.04,72.056 C195.402668,73.2506726 195.946663,74.2959955 196.672,75.192 C197.397337,76.0880045 198.314661,76.802664 199.424,77.336 C200.533339,77.869336 201.855992,78.136 203.392,78.136 C205.525344,78.136 207.24266,77.6773379 208.544,76.76 C209.84534,75.8426621 210.815997,74.4666758 211.456,72.632 L218.368,72.632 C217.983998,74.424009 217.322671,76.023993 216.384,77.432 C215.445329,78.840007 214.314673,80.0239952 212.992,80.984 C211.669327,81.9440048 210.186675,82.6693309 208.544,83.16 C206.901325,83.6506691 205.184009,83.896 203.392,83.896 C200.78932,83.896 198.485343,83.4693376 196.48,82.616 C194.474657,81.7626624 192.778674,80.5680077 191.392,79.032 C190.005326,77.4959923 188.960004,75.661344 188.256,73.528 C187.551996,71.394656 187.2,69.0480128 187.2,66.488 C187.2,64.1413216 187.57333,61.9120106 188.32,59.8 C189.06667,57.6879894 190.133326,55.832008 191.52,54.232 C192.906674,52.631992 194.581324,51.3626714 196.544,50.424 C198.506676,49.4853286 200.725321,49.016 203.2,49.016 C205.80268,49.016 208.138656,49.5599946 210.208,50.648 C212.277344,51.7360054 213.99466,53.175991 215.36,54.968 C216.72534,56.760009 217.71733,58.818655 218.336,61.144 C218.95467,63.469345 219.114668,65.869321 218.816,68.344 L194.496,68.344 Z M255.552,83 L248.64,83 L248.64,78.52 L248.512,78.52 C247.530662,80.4400096 246.101343,81.8159958 244.224,82.648 C242.346657,83.4800042 240.362677,83.896 238.272,83.896 C235.66932,83.896 233.397343,83.4373379 231.456,82.52 C229.514657,81.6026621 227.904006,80.3546746 226.624,78.776 C225.343994,77.1973254 224.384003,75.3306774 223.744,73.176 C223.103997,71.0213226 222.784,68.706679 222.784,66.232 C222.784,63.2453184 223.189329,60.6640109 224,58.488 C224.810671,56.3119891 225.887993,54.520007 227.232,53.112 C228.576007,51.703993 230.111991,50.6693366 231.84,50.008 C233.568009,49.3466634 235.327991,49.016 237.12,49.016 C238.144005,49.016 239.189328,49.111999 240.256,49.304 C241.322672,49.496001 242.346662,49.8053312 243.328,50.232 C244.309338,50.6586688 245.215996,51.2026634 246.048,51.864 C246.880004,52.5253366 247.573331,53.3039955 248.128,54.2 L248.256,54.2 L248.256,37.304 L255.552,37.304 L255.552,83 Z M230.08,66.808 C230.08,68.216007 230.261332,69.6026598 230.624,70.968 C230.986668,72.3333402 231.54133,73.549328 232.288,74.616 C233.03467,75.682672 233.983994,76.5359968 235.136,77.176 C236.288006,77.8160032 237.653325,78.136 239.232,78.136 C240.853341,78.136 242.250661,77.7946701 243.424,77.112 C244.597339,76.4293299 245.55733,75.5333389 246.304,74.424 C247.05067,73.3146611 247.605332,72.0666736 247.968,70.68 C248.330668,69.2933264 248.512,67.8746739 248.512,66.424 C248.512,62.7546483 247.690675,59.8960102 246.048,57.848 C244.405325,55.7999898 242.176014,54.776 239.36,54.776 C237.653325,54.776 236.213339,55.1279965 235.04,55.832 C233.866661,56.5360035 232.90667,57.4533277 232.16,58.584 C231.41333,59.7146723 230.880002,60.9946595 230.56,62.424 C230.239998,63.8533405 230.08,65.3146592 230.08,66.808 Z M281.472,37.304 L288.768,37.304 L288.768,54.2 L288.896,54.2 C289.408003,53.3893293 290.026663,52.6640032 290.752,52.024 C291.477337,51.3839968 292.277329,50.8400022 293.152,50.392 C294.026671,49.9439978 294.943995,49.6026678 295.904,49.368 C296.864005,49.1333322 297.813329,49.016 298.752,49.016 C301.35468,49.016 303.626657,49.4746621 305.568,50.392 C307.509343,51.3093379 309.119994,52.567992 310.4,54.168 C311.680006,55.768008 312.639997,57.634656 313.28,59.768 C313.920003,61.901344 314.24,64.1839878 314.24,66.616 C314.24,68.8346778 313.952003,70.9893229 313.376,73.08 C312.799997,75.1706771 311.925339,77.015992 310.752,78.616 C309.578661,80.216008 308.096009,81.4959952 306.304,82.456 C304.511991,83.4160048 302.400012,83.896 299.968,83.896 C298.858661,83.896 297.738672,83.8213341 296.608,83.672 C295.477328,83.5226659 294.400005,83.2346688 293.376,82.808 C292.351995,82.3813312 291.424004,81.8266701 290.592,81.144 C289.759996,80.4613299 289.066669,79.5653389 288.512,78.456 L288.384,78.456 L288.384,83 L281.472,83 L281.472,37.304 Z M306.944,66.488 C306.944,64.9946592 306.752002,63.544007 306.368,62.136 C305.983998,60.727993 305.408004,59.4800054 304.64,58.392 C303.871996,57.3039946 302.912006,56.4293366 301.76,55.768 C300.607994,55.1066634 299.285341,54.776 297.792,54.776 C294.719985,54.776 292.405341,55.842656 290.848,57.976 C289.290659,60.109344 288.512,62.946649 288.512,66.488 C288.512,68.1520083 288.714665,69.6986595 289.12,71.128 C289.525335,72.5573405 290.133329,73.7839949 290.944,74.808 C291.754671,75.8320051 292.725328,76.6426637 293.856,77.24 C294.986672,77.8373363 296.298659,78.136 297.792,78.136 C299.456008,78.136 300.863994,77.7946701 302.016,77.112 C303.168006,76.4293299 304.11733,75.5440054 304.864,74.456 C305.61067,73.3679946 306.143998,72.1306736 306.464,70.744 C306.784002,69.3573264 306.944,67.9386739 306.944,66.488 Z M316.736,49.912 L324.736,49.912 L333.376,74.616 L333.504,74.616 L341.888,49.912 L349.504,49.912 L336.64,84.792 C336.042664,86.2853408 335.456003,87.7146598 334.88,89.08 C334.303997,90.4453402 333.600004,91.6506614 332.768,92.696 C331.935996,93.7413386 330.90134,94.5733302 329.664,95.192 C328.42666,95.8106698 326.84801,96.12 324.928,96.12 C323.221325,96.12 321.536008,95.9920013 319.872,95.736 L319.872,89.592 C320.469336,89.6773338 321.045331,89.7733328 321.6,89.88 C322.154669,89.9866672 322.730664,90.04 323.328,90.04 C324.181338,90.04 324.885331,89.9333344 325.44,89.72 C325.994669,89.5066656 326.453332,89.1973354 326.816,88.792 C327.178668,88.3866646 327.487999,87.9066694 327.744,87.352 C328.000001,86.7973306 328.234666,86.157337 328.448,85.432 L329.28,82.872 L316.736,49.912 Z" id="powered-by" fill="#C8C8C8"></path>
        </g>
    </g>
</svg>