<?xml version="1.0" encoding="UTF-8"?>
<svg width="1171px" height="138px" viewBox="0 0 1171 138" version="1.1" xmlns="http://www.w3.org/2000/svg" xmlns:xlink="http://www.w3.org/1999/xlink">
    <!-- Generator: Sketch 47.1 (45422) - http://www.bohemiancoding.com/sketch -->
    <title>logo</title>
    <desc>Created with Sketch.</desc>
    <defs></defs>
    <g id="Page-1" stroke="none" stroke-width="1" fill="none" fill-rule="evenodd">
        <g id="Çalışma-Masam" transform="translate(-614.000000, -476.000000)">
            <g id="logo" transform="translate(614.000000, 438.000000)">
                <path d="M270.45,92.75 C270.149999,89.349983 269.275007,86.350013 267.825,83.75 C266.374993,81.149987 264.500012,79.0000085 262.2,77.3 C259.899989,75.5999915 257.225015,74.3000045 254.175,73.4 C251.124985,72.4999955 247.850018,72.05 244.35,72.05 C239.549976,72.05 235.300018,73.0249903 231.6,74.975 C227.899981,76.9250098 224.800013,79.5249837 222.3,82.775 C219.799987,86.0250162 217.900006,89.7249792 216.6,93.875 C215.299993,98.0250207 214.65,102.299978 214.65,106.7 C214.65,111.900026 215.249994,116.699978 216.45,121.1 C217.650006,125.500022 219.499988,129.324984 222,132.575 C224.500012,135.825016 227.599982,138.349991 231.3,140.15 C235.000019,141.950009 239.349975,142.85 244.35,142.85 C247.950018,142.85 251.274985,142.250006 254.325,141.05 C257.375015,139.849994 260.074988,138.200011 262.425,136.1 C264.775012,133.999989 266.699993,131.475015 268.2,128.525 C269.700007,125.574985 270.699997,122.350018 271.2,118.85 L276.9,118.85 C276.299997,123.350022 275.100009,127.349982 273.3,130.85 C271.499991,134.350018 269.225014,137.324988 266.475,139.775 C263.724986,142.225012 260.625017,144.124993 257.175,145.475 C253.724983,146.825007 250.05002,147.599999 246.15,147.8 L240.45,154.4 L240.6,154.55 C242.300008,153.849997 244.19999,153.5 246.3,153.5 C249.400015,153.5 252.024989,154.324992 254.175,155.975 C256.325011,157.625008 257.4,160.149983 257.4,163.55 C257.4,167.55002 256.000014,170.52499 253.2,172.475 C250.399986,174.42501 246.900021,175.4 242.7,175.4 C239.799985,175.4 237.250011,175.050004 235.05,174.35 C232.849989,173.649996 230.800009,172.750005 228.9,171.65 L230.55,168.05 C232.250009,168.950005 234.07499,169.724997 236.025,170.375 C237.97501,171.025003 240.149988,171.35 242.55,171.35 C245.250013,171.35 247.449992,170.700007 249.15,169.4 C250.850009,168.099994 251.7,166.250012 251.7,163.85 C251.7,161.949991 250.975007,160.400006 249.525,159.2 C248.074993,157.999994 246.200012,157.4 243.9,157.4 C242.499993,157.4 241.200006,157.574998 240,157.925 C238.799994,158.275002 237.650005,158.699997 236.55,159.2 L234.15,157.25 L241.2,147.65 C235.499971,147.249998 230.62502,145.875012 226.575,143.525 C222.52498,141.174988 219.175013,138.125019 216.525,134.375 C213.874987,130.624981 211.950006,126.375024 210.75,121.625 C209.549994,116.874976 208.95,111.900026 208.95,106.7 C208.95,101.299973 209.724992,96.200024 211.275,91.4 C212.825008,86.599976 215.099985,82.400018 218.1,78.8 C221.100015,75.199982 224.799978,72.3500105 229.2,70.25 C233.600022,68.1499895 238.649971,67.1 244.35,67.1 C248.550021,67.1 252.474982,67.6249948 256.125,68.675 C259.775018,69.7250053 263.024986,71.2999895 265.875,73.4 C268.725014,75.5000105 271.049991,78.1749837 272.85,81.425 C274.650009,84.6750162 275.749998,88.4499785 276.15,92.75 L270.45,92.75 Z M341.4,130.7 L341.1,130.7 C340.199996,133.000011 338.900009,135.17499 337.2,137.225 C335.499991,139.27501 333.425012,141.099992 330.975,142.7 C328.524988,144.300008 325.750016,145.549995 322.65,146.45 C319.549985,147.350005 316.150018,147.8 312.45,147.8 C304.249959,147.8 297.900022,146.025018 293.4,142.475 C288.899977,138.924982 286.65,133.450037 286.65,126.05 C286.65,121.549978 287.549991,117.875014 289.35,115.025 C291.150009,112.174986 293.424986,109.925008 296.175,108.275 C298.925014,106.624992 301.974983,105.450004 305.325,104.75 C308.675017,104.049997 311.899984,103.550002 315,103.25 L323.85,102.5 C327.950021,102.199999 331.174988,101.725003 333.525,101.075 C335.875012,100.424997 337.649994,99.5250057 338.85,98.375 C340.050006,97.2249943 340.799999,95.750009 341.1,93.95 C341.400002,92.149991 341.55,89.9000135 341.55,87.2 C341.55,85.0999895 341.150004,83.150009 340.35,81.35 C339.549996,79.549991 338.300009,77.950007 336.6,76.55 C334.899992,75.149993 332.700014,74.050004 330,73.25 C327.299987,72.449996 324.00002,72.05 320.1,72.05 C313.199966,72.05 307.625021,73.749983 303.375,77.15 C299.124979,80.550017 296.800002,85.6999655 296.4,92.6 L290.7,92.6 C291.100002,84.0999575 293.824975,77.7250212 298.875,73.475 C303.925025,69.2249788 311.099953,67.1 320.4,67.1 C329.700046,67.1 336.474979,68.9249818 340.725,72.575 C344.975021,76.2250183 347.1,80.9999705 347.1,86.9 L347.1,131.75 C347.1,132.850006 347.125,133.949995 347.175,135.05 C347.225,136.150005 347.399999,137.149995 347.7,138.05 C348.000002,138.950005 348.499996,139.674997 349.2,140.225 C349.900004,140.775003 350.899994,141.05 352.2,141.05 C353.200005,141.05 354.599991,140.900002 356.4,140.6 L356.4,145.4 C354.899992,145.800002 353.350008,146 351.75,146 C349.449989,146 347.625007,145.700003 346.275,145.1 C344.924993,144.499997 343.900004,143.700005 343.2,142.7 C342.499997,141.699995 342.025001,140.525007 341.775,139.175 C341.524999,137.824993 341.4,136.350008 341.4,134.75 L341.4,130.7 Z M341.4,102.2 C339.999993,103.900008 337.875014,105.049997 335.025,105.65 C332.174986,106.250003 329.000018,106.699998 325.5,107 L315.9,107.9 C313.099986,108.200001 310.300014,108.624997 307.5,109.175 C304.699986,109.725003 302.175011,110.649993 299.925,111.95 C297.674989,113.250006 295.850007,115.024989 294.45,117.275 C293.049993,119.525011 292.35,122.449982 292.35,126.05 C292.35,131.750028 294.149982,135.974986 297.75,138.725 C301.350018,141.475014 306.299968,142.85 312.6,142.85 C319.100032,142.85 324.249981,141.675012 328.05,139.325 C331.850019,136.974988 334.74999,134.275015 336.75,131.225 C338.75001,128.174985 340.024997,125.225014 340.575,122.375 C341.125003,119.524986 341.4,117.600005 341.4,116.6 L341.4,102.2 Z M372.3,38.9 L372.3,146 L366.6,146 L366.6,38.9 L372.3,38.9 Z M391.8,146 L391.8,68.9 L397.5,68.9 L397.5,146 L391.8,146 Z M418.35,120.35 C418.550001,123.950018 419.349993,127.124986 420.75,129.875 C422.150007,132.625014 423.974989,134.97499 426.225,136.925 C428.475011,138.87501 431.099985,140.349995 434.1,141.35 C437.100015,142.350005 440.349982,142.85 443.85,142.85 C446.350012,142.85 449.024986,142.625002 451.875,142.175 C454.725014,141.724998 457.374988,140.900006 459.825,139.7 C462.275012,138.499994 464.299992,136.825011 465.9,134.675 C467.500008,132.524989 468.3,129.800016 468.3,126.5 C468.3,122.199978 467.000013,118.950011 464.4,116.75 C461.799987,114.549989 458.52502,112.850006 454.575,111.65 C450.62498,110.449994 446.375023,109.475004 441.825,108.725 C437.274977,107.974996 433.02502,106.850007 429.075,105.35 C425.12498,103.849992 421.850013,101.725014 419.25,98.975 C416.649987,96.2249863 415.35,92.2000265 415.35,86.9 C415.35,83.099981 416.199991,79.9250128 417.9,77.375 C419.600008,74.8249872 421.774987,72.8000075 424.425,71.3 C427.075013,69.7999925 430.049983,68.7250032 433.35,68.075 C436.650016,67.4249967 439.949983,67.1 443.25,67.1 C447.25002,67.1 450.999982,67.5499955 454.5,68.45 C458.000017,69.3500045 461.024987,70.79999 463.575,72.8 C466.125013,74.80001 468.124993,77.3499845 469.575,80.45 C471.025007,83.5500155 471.75,87.299978 471.75,91.7 L466.05,91.7 C466.05,88.1999825 465.475006,85.2000125 464.325,82.7 C463.174994,80.1999875 461.57501,78.1750077 459.525,76.625 C457.47499,75.0749923 455.050014,73.9250038 452.25,73.175 C449.449986,72.4249962 446.450016,72.05 443.25,72.05 C440.649987,72.05 438.025013,72.2999975 435.375,72.8 C432.724987,73.3000025 430.35001,74.149994 428.25,75.35 C426.149989,76.550006 424.425007,78.0999905 423.075,80 C421.724993,81.9000095 421.05,84.1999865 421.05,86.9 C421.05,90.0000155 421.799992,92.4999905 423.3,94.4 C424.800007,96.3000095 426.774988,97.8249943 429.225,98.975 C431.675012,100.125006 434.424985,101.049996 437.475,101.75 C440.525015,102.450004 443.599984,103.149997 446.7,103.85 C450.500019,104.550004 454.074983,105.374995 457.425,106.325 C460.775017,107.275005 463.674988,108.574992 466.125,110.225 C468.575012,111.875008 470.499993,113.999987 471.9,116.6 C473.300007,119.200013 474,122.49998 474,126.5 C474,130.60002 473.100009,133.974987 471.3,136.625 C469.499991,139.275013 467.200014,141.424992 464.4,143.075 C461.599986,144.725008 458.475017,145.899996 455.025,146.6 C451.574983,147.300004 448.200016,147.699999 444.9,147.8 L439.35,154.4 L439.5,154.55 C441.200008,153.849997 443.099989,153.5 445.2,153.5 C448.300015,153.5 450.924989,154.324992 453.075,155.975 C455.225011,157.625008 456.3,160.149983 456.3,163.55 C456.3,167.55002 454.900014,170.52499 452.1,172.475 C449.299986,174.42501 445.800021,175.4 441.6,175.4 C438.699985,175.4 436.150011,175.050004 433.95,174.35 C431.749989,173.649996 429.700009,172.750005 427.8,171.65 L429.45,168.05 C431.150008,168.950005 432.97499,169.724997 434.925,170.375 C436.87501,171.025003 439.049988,171.35 441.45,171.35 C444.150014,171.35 446.349991,170.700007 448.05,169.4 C449.750008,168.099994 450.6,166.250012 450.6,163.85 C450.6,161.949991 449.875007,160.400006 448.425,159.2 C446.974993,157.999994 445.100011,157.4 442.8,157.4 C441.399993,157.4 440.100006,157.574998 438.9,157.925 C437.699994,158.275002 436.550005,158.699997 435.45,159.2 L433.05,157.25 L440.1,147.65 C436.19998,147.349998 432.600016,146.550006 429.3,145.25 C425.999983,143.949994 423.125012,142.150012 420.675,139.85 C418.224988,137.549988 416.300007,134.775016 414.9,131.525 C413.499993,128.274984 412.75,124.550021 412.65,120.35 L418.35,120.35 Z M487.95,68.9 L493.65,68.9 L493.65,84.65 L493.95,84.65 C494.550003,82.249988 495.599992,79.9750107 497.1,77.825 C498.600007,75.6749893 500.424989,73.800008 502.575,72.2 C504.725011,70.599992 507.124987,69.3500045 509.775,68.45 C512.425013,67.5499955 515.199986,67.1 518.1,67.1 C521.800018,67.1 524.999986,67.5749953 527.7,68.525 C530.400014,69.4750048 532.699991,70.7249923 534.6,72.275 C536.50001,73.8250077 537.999994,75.5749903 539.1,77.525 C540.200005,79.4750097 540.949998,81.44999 541.35,83.45 L541.65,83.45 C543.950011,78.049973 547.024981,73.9750138 550.875,71.225 C554.725019,68.4749863 559.799968,67.1 566.1,67.1 C569.600017,67.1 572.824985,67.6249948 575.775,68.675 C578.725015,69.7250053 581.274989,71.3249893 583.425,73.475 C585.575011,75.6250108 587.249994,78.3499835 588.45,81.65 C589.650006,84.9500165 590.25,88.8499775 590.25,93.35 L590.25,146 L584.55,146 L584.55,93.2 C584.55,88.2999755 583.800007,84.450014 582.3,81.65 C580.799992,78.849986 579.02501,76.7250073 576.975,75.275 C574.92499,73.8249928 572.87501,72.9250018 570.825,72.575 C568.77499,72.2249982 567.200005,72.05 566.1,72.05 C562.599982,72.05 559.375015,72.649994 556.425,73.85 C553.474985,75.050006 550.925011,76.849988 548.775,79.25 C546.624989,81.650012 544.950006,84.6249822 543.75,88.175 C542.549994,91.7250178 541.95,95.799977 541.95,100.4 L541.95,146 L536.25,146 L536.25,93.2 C536.25,88.399976 535.525007,84.5750143 534.075,81.725 C532.624993,78.8749858 530.92501,76.750007 528.975,75.35 C527.02499,73.949993 525.02501,73.050002 522.975,72.65 C520.92499,72.249998 519.300006,72.05 518.1,72.05 C515.399986,72.05 512.600015,72.5999945 509.7,73.7 C506.799985,74.8000055 504.150012,76.4999885 501.75,78.8 C499.349988,81.1000115 497.400008,84.049982 495.9,87.65 C494.399992,91.250018 493.65,95.4999755 493.65,100.4 L493.65,146 L487.95,146 L487.95,68.9 Z M658.35,130.7 L658.05,130.7 C657.149995,133.000011 655.850009,135.17499 654.15,137.225 C652.449991,139.27501 650.375012,141.099992 647.925,142.7 C645.474988,144.300008 642.700016,145.549995 639.6,146.45 C636.499984,147.350005 633.100019,147.8 629.4,147.8 C621.199959,147.8 614.850023,146.025018 610.35,142.475 C605.849978,138.924982 603.6,133.450037 603.6,126.05 C603.6,121.549978 604.499991,117.875014 606.3,115.025 C608.100009,112.174986 610.374986,109.925008 613.125,108.275 C615.875014,106.624992 618.924983,105.450004 622.275,104.75 C625.625017,104.049997 628.849984,103.550002 631.95,103.25 L640.8,102.5 C644.90002,102.199999 648.124988,101.725003 650.475,101.075 C652.825012,100.424997 654.599994,99.5250057 655.8,98.375 C657.000006,97.2249943 657.749998,95.750009 658.05,93.95 C658.350001,92.149991 658.5,89.9000135 658.5,87.2 C658.5,85.0999895 658.100004,83.150009 657.3,81.35 C656.499996,79.549991 655.250008,77.950007 653.55,76.55 C651.849991,75.149993 649.650013,74.050004 646.95,73.25 C644.249986,72.449996 640.95002,72.05 637.05,72.05 C630.149966,72.05 624.575021,73.749983 620.325,77.15 C616.074979,80.550017 613.750002,85.6999655 613.35,92.6 L607.65,92.6 C608.050002,84.0999575 610.774975,77.7250212 615.825,73.475 C620.875025,69.2249788 628.049953,67.1 637.35,67.1 C646.650046,67.1 653.424979,68.9249818 657.675,72.575 C661.925021,76.2250183 664.05,80.9999705 664.05,86.9 L664.05,131.75 C664.05,132.850006 664.075,133.949995 664.125,135.05 C664.175,136.150005 664.349999,137.149995 664.65,138.05 C664.950002,138.950005 665.449996,139.674997 666.15,140.225 C666.850003,140.775003 667.849993,141.05 669.15,141.05 C670.150005,141.05 671.549991,140.900002 673.35,140.6 L673.35,145.4 C671.849993,145.800002 670.300008,146 668.7,146 C666.399989,146 664.575007,145.700003 663.225,145.1 C661.874993,144.499997 660.850003,143.700005 660.15,142.7 C659.449996,141.699995 658.975001,140.525007 658.725,139.175 C658.474999,137.824993 658.35,136.350008 658.35,134.75 L658.35,130.7 Z M658.35,102.2 C656.949993,103.900008 654.825014,105.049997 651.975,105.65 C649.124986,106.250003 645.950017,106.699998 642.45,107 L632.85,107.9 C630.049986,108.200001 627.250014,108.624997 624.45,109.175 C621.649986,109.725003 619.125011,110.649993 616.875,111.95 C614.624989,113.250006 612.800007,115.024989 611.4,117.275 C609.999993,119.525011 609.3,122.449982 609.3,126.05 C609.3,131.750028 611.099982,135.974986 614.7,138.725 C618.300018,141.475014 623.249968,142.85 629.55,142.85 C636.050032,142.85 641.199981,141.675012 645,139.325 C648.800019,136.974988 651.69999,134.275015 653.7,131.225 C655.70001,128.174985 656.974997,125.225014 657.525,122.375 C658.075003,119.524986 658.35,117.600005 658.35,116.6 L658.35,102.2 Z M682.8,68.45 L699,68.45 L699,79.25 L699.45,79.25 C700.750006,77.3499905 702.149993,75.600008 703.65,74 C705.150007,72.399992 706.824991,71.0500055 708.675,69.95 C710.525009,68.8499945 712.649988,67.9750032 715.05,67.325 C717.450012,66.6749967 720.199984,66.35 723.3,66.35 C728.000023,66.35 732.37498,67.3999895 736.425,69.5 C740.47502,71.6000105 743.349991,74.849978 745.05,79.25 C747.950014,75.24998 751.299981,72.1000115 755.1,69.8 C758.900019,67.4999885 763.649971,66.35 769.35,66.35 C777.550041,66.35 783.924977,68.34998 788.475,72.35 C793.025023,76.35002 795.3,83.049953 795.3,92.45 L795.3,146 L778.2,146 L778.2,100.7 C778.2,97.5999845 778.100001,94.7750128 777.9,92.225 C777.699999,89.6749873 777.125005,87.4750092 776.175,85.625 C775.224995,83.7749908 773.800009,82.350005 771.9,81.35 C769.99999,80.349995 767.400016,79.85 764.1,79.85 C758.299971,79.85 754.100013,81.649982 751.5,85.25 C748.899987,88.850018 747.6,93.949967 747.6,100.55 L747.6,146 L730.5,146 L730.5,96.2 C730.5,90.799973 729.52501,86.7250137 727.575,83.975 C725.62499,81.2249863 722.050026,79.85 716.85,79.85 C714.649989,79.85 712.52501,80.2999955 710.475,81.2 C708.42499,82.1000045 706.625008,83.3999915 705.075,85.1 C703.524992,86.8000085 702.275005,88.8999875 701.325,91.4 C700.374995,93.9000125 699.9,96.749984 699.9,99.95 L699.9,146 L682.8,146 L682.8,68.45 Z M878.25,128.75 C878.25,130.85001 878.524997,132.349996 879.075,133.25 C879.625003,134.150004 880.699992,134.6 882.3,134.6 L884.1,134.6 C884.800004,134.6 885.599995,134.500001 886.5,134.3 L886.5,146.15 C885.899997,146.350001 885.125005,146.574999 884.175,146.825 C883.224995,147.075001 882.250005,147.299999 881.25,147.5 C880.249995,147.700001 879.250005,147.849999 878.25,147.95 C877.249995,148.050001 876.400003,148.1 875.7,148.1 C872.199983,148.1 869.300011,147.400007 867,146 C864.699989,144.599993 863.200004,142.150017 862.5,138.65 C859.099983,141.950017 854.925025,144.349992 849.975,145.85 C845.024975,147.350008 840.250023,148.1 835.65,148.1 C832.149983,148.1 828.800016,147.625005 825.6,146.675 C822.399984,145.724995 819.575012,144.325009 817.125,142.475 C814.674988,140.624991 812.725007,138.275014 811.275,135.425 C809.824993,132.574986 809.1,129.250019 809.1,125.45 C809.1,120.649976 809.974991,116.750015 811.725,113.75 C813.475009,110.749985 815.774986,108.400009 818.625,106.7 C821.475014,104.999991 824.674982,103.775004 828.225,103.025 C831.775018,102.274996 835.349982,101.700002 838.95,101.3 C842.050015,100.699997 844.999986,100.275001 847.8,100.025 C850.600014,99.7749988 853.074989,99.350003 855.225,98.75 C857.375011,98.149997 859.074994,97.2250062 860.325,95.975 C861.575006,94.7249937 862.2,92.8500125 862.2,90.35 C862.2,88.149989 861.675005,86.350007 860.625,84.95 C859.574995,83.549993 858.275008,82.4750037 856.725,81.725 C855.174992,80.9749963 853.45001,80.4750013 851.55,80.225 C849.649991,79.9749987 847.850009,79.85 846.15,79.85 C841.349976,79.85 837.400015,80.84999 834.3,82.85 C831.199985,84.85001 829.450002,87.949979 829.05,92.15 L811.95,92.15 C812.250002,87.149975 813.449989,83.0000165 815.55,79.7 C817.650011,76.3999835 820.324984,73.75001 823.575,71.75 C826.825016,69.74999 830.499979,68.350004 834.6,67.55 C838.70002,66.749996 842.899979,66.35 847.2,66.35 C851.000019,66.35 854.749982,66.749996 858.45,67.55 C862.150018,68.350004 865.474985,69.649991 868.425,71.45 C871.375015,73.250009 873.749991,75.5749857 875.55,78.425 C877.350009,81.2750142 878.25,84.7499795 878.25,88.85 L878.25,128.75 Z M861.15,107.15 C858.549987,108.850009 855.350019,109.874998 851.55,110.225 C847.749981,110.575002 843.950019,111.099997 840.15,111.8 C838.349991,112.100002 836.600009,112.524997 834.9,113.075 C833.199991,113.625003 831.700006,114.374995 830.4,115.325 C829.099993,116.275005 828.075004,117.524992 827.325,119.075 C826.574996,120.625008 826.2,122.499989 826.2,124.7 C826.2,126.600009 826.749994,128.199994 827.85,129.5 C828.950006,130.800006 830.274992,131.824996 831.825,132.575 C833.375008,133.325004 835.074991,133.849998 836.925,134.15 C838.775009,134.450001 840.449993,134.6 841.95,134.6 C843.850009,134.6 845.899989,134.350003 848.1,133.85 C850.300011,133.349998 852.37499,132.500006 854.325,131.3 C856.27501,130.099994 857.899993,128.575009 859.2,126.725 C860.500006,124.874991 861.15,122.600014 861.15,119.9 L861.15,107.15 Z M909.6,121.1 C910.100003,126.100025 911.999983,129.59999 915.3,131.6 C918.600017,133.60001 922.549977,134.6 927.15,134.6 C928.750008,134.6 930.57499,134.475001 932.625,134.225 C934.67501,133.974999 936.599991,133.500003 938.4,132.8 C940.200009,132.099997 941.674994,131.075007 942.825,129.725 C943.975006,128.374993 944.5,126.600011 944.4,124.4 C944.3,122.199989 943.500008,120.400007 942,119 C940.499992,117.599993 938.575012,116.475004 936.225,115.625 C933.874988,114.774996 931.200015,114.050003 928.2,113.45 C925.199985,112.849997 922.150015,112.200004 919.05,111.5 C915.849984,110.799997 912.775015,109.950005 909.825,108.95 C906.874985,107.949995 904.225012,106.600009 901.875,104.9 C899.524988,103.199991 897.650007,101.025013 896.25,98.375 C894.849993,95.7249867 894.15,92.4500195 894.15,88.55 C894.15,84.349979 895.17499,80.8250143 897.225,77.975 C899.27501,75.1249858 901.874984,72.8250087 905.025,71.075 C908.175016,69.3249913 911.674981,68.1000035 915.525,67.4 C919.375019,66.6999965 923.049982,66.35 926.55,66.35 C930.55002,66.35 934.374982,66.7749957 938.025,67.625 C941.675018,68.4750043 944.974985,69.8499905 947.925,71.75 C950.875015,73.6500095 953.32499,76.1249848 955.275,79.175 C957.22501,82.2250152 958.449997,85.8999785 958.95,90.2 L941.1,90.2 C940.299996,86.0999795 938.425015,83.350007 935.475,81.95 C932.524985,80.549993 929.150019,79.85 925.35,79.85 C924.149994,79.85 922.725008,79.949999 921.075,80.15 C919.424992,80.350001 917.875007,80.7249973 916.425,81.275 C914.974993,81.8250027 913.750005,82.6249947 912.75,83.675 C911.749995,84.7250053 911.25,86.0999915 911.25,87.8 C911.25,89.9000105 911.974993,91.5999935 913.425,92.9 C914.875007,94.2000065 916.774988,95.2749957 919.125,96.125 C921.475012,96.9750043 924.149985,97.699997 927.15,98.3 C930.150015,98.900003 933.249984,99.5499965 936.45,100.25 C939.550015,100.950004 942.599985,101.799995 945.6,102.8 C948.600015,103.800005 951.274988,105.149991 953.625,106.85 C955.975012,108.550008 957.874993,110.699987 959.325,113.3 C960.775007,115.900013 961.5,119.099981 961.5,122.9 C961.5,127.500023 960.45001,131.399984 958.35,134.6 C956.249989,137.800016 953.525017,140.39999 950.175,142.4 C946.824983,144.40001 943.100021,145.849996 939,146.75 C934.899979,147.650004 930.85002,148.1 926.85,148.1 C921.949975,148.1 917.425021,147.550005 913.275,146.45 C909.124979,145.349995 905.525015,143.675011 902.475,141.425 C899.424985,139.174989 897.025009,136.375017 895.275,133.025 C893.524991,129.674983 892.600001,125.700023 892.5,121.1 L909.6,121.1 Z M1039.5,128.75 C1039.5,130.85001 1039.775,132.349996 1040.325,133.25 C1040.875,134.150004 1041.94999,134.6 1043.55,134.6 L1045.35,134.6 C1046.05,134.6 1046.85,134.500001 1047.75,134.3 L1047.75,146.15 C1047.15,146.350001 1046.375,146.574999 1045.425,146.825 C1044.475,147.075001 1043.5,147.299999 1042.5,147.5 C1041.5,147.700001 1040.50001,147.849999 1039.5,147.95 C1038.5,148.050001 1037.65,148.1 1036.95,148.1 C1033.44998,148.1 1030.55001,147.400007 1028.25,146 C1025.94999,144.599993 1024.45,142.150017 1023.75,138.65 C1020.34998,141.950017 1016.17502,144.349992 1011.225,145.85 C1006.27498,147.350008 1001.50002,148.1 996.9,148.1 C993.399982,148.1 990.050016,147.625005 986.85,146.675 C983.649984,145.724995 980.825012,144.325009 978.375,142.475 C975.924988,140.624991 973.975007,138.275014 972.525,135.425 C971.074993,132.574986 970.35,129.250019 970.35,125.45 C970.35,120.649976 971.224991,116.750015 972.975,113.75 C974.725009,110.749985 977.024986,108.400009 979.875,106.7 C982.725014,104.999991 985.924982,103.775004 989.475,103.025 C993.025018,102.274996 996.599982,101.700002 1000.2,101.3 C1003.30002,100.699997 1006.24999,100.275001 1009.05,100.025 C1011.85001,99.7749988 1014.32499,99.350003 1016.475,98.75 C1018.62501,98.149997 1020.32499,97.2250062 1021.575,95.975 C1022.82501,94.7249937 1023.45,92.8500125 1023.45,90.35 C1023.45,88.149989 1022.92501,86.350007 1021.875,84.95 C1020.82499,83.549993 1019.52501,82.4750037 1017.975,81.725 C1016.42499,80.9749963 1014.70001,80.4750013 1012.8,80.225 C1010.89999,79.9749987 1009.10001,79.85 1007.4,79.85 C1002.59998,79.85 998.650015,80.84999 995.55,82.85 C992.449985,84.85001 990.700002,87.949979 990.3,92.15 L973.2,92.15 C973.500002,87.149975 974.699989,83.0000165 976.8,79.7 C978.900011,76.3999835 981.574984,73.75001 984.825,71.75 C988.075016,69.74999 991.749979,68.350004 995.85,67.55 C999.95002,66.749996 1004.14998,66.35 1008.45,66.35 C1012.25002,66.35 1015.99998,66.749996 1019.7,67.55 C1023.40002,68.350004 1026.72499,69.649991 1029.675,71.45 C1032.62501,73.250009 1034.99999,75.5749857 1036.8,78.425 C1038.60001,81.2750142 1039.5,84.7499795 1039.5,88.85 L1039.5,128.75 Z M1022.4,107.15 C1019.79999,108.850009 1016.60002,109.874998 1012.8,110.225 C1008.99998,110.575002 1005.20002,111.099997 1001.4,111.8 C999.599991,112.100002 997.850009,112.524997 996.15,113.075 C994.449991,113.625003 992.950006,114.374995 991.65,115.325 C990.349993,116.275005 989.325004,117.524992 988.575,119.075 C987.824996,120.625008 987.45,122.499989 987.45,124.7 C987.45,126.600009 987.999994,128.199994 989.1,129.5 C990.200006,130.800006 991.524992,131.824996 993.075,132.575 C994.625008,133.325004 996.324991,133.849998 998.175,134.15 C1000.02501,134.450001 1001.69999,134.6 1003.2,134.6 C1005.10001,134.6 1007.14999,134.350003 1009.35,133.85 C1011.55001,133.349998 1013.62499,132.500006 1015.575,131.3 C1017.52501,130.099994 1019.14999,128.575009 1020.45,126.725 C1021.75001,124.874991 1022.4,122.600014 1022.4,119.9 L1022.4,107.15 Z M1057.95,68.45 L1074.15,68.45 L1074.15,79.25 L1074.6,79.25 C1075.90001,77.3499905 1077.29999,75.600008 1078.8,74 C1080.30001,72.399992 1081.97499,71.0500055 1083.825,69.95 C1085.67501,68.8499945 1087.79999,67.9750032 1090.2,67.325 C1092.60001,66.6749967 1095.34998,66.35 1098.45,66.35 C1103.15002,66.35 1107.52498,67.3999895 1111.575,69.5 C1115.62502,71.6000105 1118.49999,74.849978 1120.2,79.25 C1123.10001,75.24998 1126.44998,72.1000115 1130.25,69.8 C1134.05002,67.4999885 1138.79997,66.35 1144.5,66.35 C1152.70004,66.35 1159.07498,68.34998 1163.625,72.35 C1168.17502,76.35002 1170.45,83.049953 1170.45,92.45 L1170.45,146 L1153.35,146 L1153.35,100.7 C1153.35,97.5999845 1153.25,94.7750128 1153.05,92.225 C1152.85,89.6749873 1152.275,87.4750092 1151.325,85.625 C1150.375,83.7749908 1148.95001,82.350005 1147.05,81.35 C1145.14999,80.349995 1142.55002,79.85 1139.25,79.85 C1133.44997,79.85 1129.25001,81.649982 1126.65,85.25 C1124.04999,88.850018 1122.75,93.949967 1122.75,100.55 L1122.75,146 L1105.65,146 L1105.65,96.2 C1105.65,90.799973 1104.67501,86.7250137 1102.725,83.975 C1100.77499,81.2249863 1097.20003,79.85 1092,79.85 C1089.79999,79.85 1087.67501,80.2999955 1085.625,81.2 C1083.57499,82.1000045 1081.77501,83.3999915 1080.225,85.1 C1078.67499,86.8000085 1077.425,88.8999875 1076.475,91.4 C1075.525,93.9000125 1075.05,96.749984 1075.05,99.95 L1075.05,146 L1057.95,146 L1057.95,68.45 Z" id="çalışmamasam-copy" fill="#3A4953"></path>
                <g id="icon" transform="translate(0.000000, 40.000000)">
                    <rect id="Rectangle-3" fill="#3A4953" x="0" y="119" width="10" height="15"></rect>
                    <rect id="Rectangle-3" fill="#3A4953" x="124" y="119" width="10" height="15"></rect>
                    <rect id="Rectangle-2" fill="#3A4953" x="0" y="0" width="134" height="120"></rect>
                    <rect id="Rectangle-4" fill="#FFFFFF" x="10" y="10" width="114" height="100"></rect>
                    <rect id="Rectangle-4" fill="#3A4953" x="20" y="20" width="94" height="80"></rect>
                </g>
            </g>
        </g>
    </g>
</svg>