<?xml version="1.0" encoding="utf-8"?>
<!-- Generator: Adobe Illustrator 22.0.1, SVG Export Plug-In . SVG Version: 6.00 Build 0)  -->
<svg version="1.1" id="Layer_1" xmlns="http://www.w3.org/2000/svg" xmlns:xlink="http://www.w3.org/1999/xlink" x="0px" y="0px"
	 viewBox="0 0 634.3 97.3" style="enable-background:new 0 0 634.3 97.3;" xml:space="preserve">
<style type="text/css">
	.st0{fill:#F50057;}
	.st1{fill:#37474F;}
</style>
<g>
	<g>
		<g>
			<g>
				<circle class="st0" cx="25.8" cy="61.7" r="7.1"/>
				<path class="st1" d="M43.2,0L0,43.2l12.7,12.7c0.7-1.6,1.7-3.1,3-4.4c1.3-1.3,2.8-2.3,4.4-3l-5.4-5.4l28.5-28.5L82.5,54L54,82.5
					L38.8,67.3c-0.7,1.6-1.7,3.1-3,4.4c-1.3,1.3-2.8,2.3-4.4,3L54,97.3L97.3,54L43.2,0z"/>
			</g>
		</g>
	</g>
	<g>
		<path class="st1" d="M167,56.7c-1.5,8.3-7.6,13.7-16.5,14.1l-1,4.3c5.7,0.2,9.1,2.8,9.1,7.3c0,4.6-4.2,7.3-9.3,7.3
			c-3,0-5.6-0.6-7.8-1.9l0.9-2.7c2,1.2,4.2,1.8,6.6,1.8c3.5,0,6.2-1.5,6.2-4.4c0-3.2-2.3-4.8-7-4.8c-0.7,0-1.4,0.1-1.9,0.2l1.7-7
			c-5.4-0.3-9.7-2.3-13.1-6c-3.4-3.8-5-8.7-5-14.9c0-6.5,1.8-11.6,5.4-15.3c3.6-3.8,8.3-5.6,14-5.6c4.7,0,8.7,1.4,12,4.1
			c3.3,2.6,5.2,6.2,5.8,10.8l-4.4,0.4c-0.7-7-6.1-11.3-13.3-11.3c-8.9,0-14.9,6.4-14.9,17c0,10.6,6.2,17,14.9,17
			c7.4,0,12.3-4,13.3-10.5L167,56.7z"/>
		<path class="st1" d="M201.3,44.3v25.8h-4.6V64c-3,4.6-7.4,6.8-13.4,6.8c-7.8,0-12.9-4-12.9-11.1c0-7.3,5-11.2,14.8-11.7l11.5-0.7
			v-2.9c0-7.3-3.4-11.3-10.1-11.3c-6.6,0-10.5,4.6-10.5,10.1l-4.6-0.2c0-3.8,1.4-7,4.1-9.7s6.4-4.2,10.9-4.2
			C196.1,28.9,201.3,34.6,201.3,44.3z M196.8,51.1l-11.1,0.6c-7.2,0.4-10.8,3-10.8,7.9c0,4.9,3,7.3,9,7.3c7.4,0,12.9-4.3,12.9-14
			V51.1z"/>
		<path class="st1" d="M215.9,70.1h-4.5V8h4.5V70.1z"/>
		<path class="st1" d="M230.7,70.1h-4.5V29.7h4.5V70.1z"/>
		<path class="st1" d="M254.5,70.8l-1,4.4c5.7,0.2,9.1,2.8,9.1,7.3c0,4.6-4.2,7.3-9.3,7.3c-3,0-5.6-0.6-7.8-1.9l0.9-2.7
			c2,1.2,4.2,1.8,6.6,1.8c3.5,0,6.2-1.5,6.2-4.4c0-3.2-2.3-4.8-7-4.8c-0.7,0-1.4,0.1-1.9,0.2l1.8-7.1c-8-0.4-13.2-4.5-14.2-11.5
			l4.5-0.3c0.9,5.2,4.9,7.9,11,7.9c6.2,0,10.1-2.6,10.1-7.8c0-2.4-0.8-4.1-2.4-5c-1.6-1-4.6-2-9.1-3c-1.6-0.4-2.6-0.6-3.2-0.7
			l-2.6-0.8c-1.3-0.4-2.2-0.7-2.6-1c-0.9-0.6-3-1.8-3.6-3c-0.6-1.3-1.2-3-1.2-5.2c0-7,5.1-11.5,14.1-11.4
			c8.2-0.1,13.1,4.3,14.1,11.3l-4.5,0.3c-0.6-4.9-4-7.8-9.7-7.8c-6.2-0.1-9.4,2.7-9.4,7.4c0,1.3,0.4,2.4,0.7,3.1
			c0.4,0.7,1.6,1.4,2.2,1.8c0.6,0.3,2.7,0.9,3.4,1.1l2.1,0.5l2.2,0.5c5,1.2,8.6,2.6,10.8,4.1s3.4,4,3.4,7.4
			C268,66.2,262.8,70.4,254.5,70.8z"/>
		<path class="st1" d="M331.7,33.5c2.8,3,4.2,6.9,4.2,11.7v24.9h-4.5V45.8c0-7.7-4.4-12.7-11.3-12.7c-3.6,0-6.6,1.3-8.7,3.8
			c-2.2,2.5-3.3,5.4-3.3,9v24.3h-4.6V45.8c0-7.6-4.5-12.7-11.2-12.7c-3.6,0-6.6,1.3-8.8,3.8c-2.2,2.5-3.3,5.4-3.3,9v24.3h-4.5V29.7
			h4.2v7c1.9-4.2,6.6-7.7,13-7.7c6.3,0,11.3,3.3,13.7,8.8c2.3-5.4,7.6-8.8,14.1-8.8C325.3,28.9,328.9,30.5,331.7,33.5z"/>
		<path class="st1" d="M373.8,44.3v25.8h-4.6V64c-3,4.6-7.4,6.8-13.4,6.8c-7.8,0-12.9-4-12.9-11.1c0-7.3,5-11.2,14.8-11.7l11.5-0.7
			v-2.9c0-7.3-3.4-11.3-10.1-11.3c-6.6,0-10.5,4.6-10.5,10.1l-4.6-0.2c0-3.8,1.4-7,4.1-9.7s6.4-4.2,10.9-4.2
			C368.6,28.9,373.8,34.6,373.8,44.3z M369.4,51.1l-11.1,0.6c-7.2,0.4-10.8,3-10.8,7.9c0,4.9,3,7.3,9,7.3c7.4,0,12.9-4.3,12.9-14
			V51.1z"/>
		<path class="st1" d="M440.6,33c2.8,3.1,4.2,7.2,4.2,12.2v24.9h-9V46.6c0-6.2-3.1-9.9-8.5-9.9c-5,0-8.3,3.4-8.9,8.5v0.2v24.7h-9
			V46.6c0-6.1-3.4-9.9-8.2-9.9c-5.5,0-9.3,4.2-9.3,10v23.4h-9v-41h8.5v5.4c2.3-4.1,6.3-6.2,11.8-6.2c6,0,10.3,2.5,13,7.4
			c2.8-5,7.3-7.4,13.3-7.4C434,28.4,437.8,29.9,440.6,33z"/>
		<path class="st1" d="M485.4,44.6v25.5h-9v-3.7c-3.1,3-6.9,4.5-11.1,4.5c-8.3,0-13.7-4.4-13.7-12c0-7.7,5-11.8,15-12.4l9.7-0.6
			v-1.2c0-5.7-2.4-8.5-7.3-8.5c-4.8,0-7.4,3-7.4,7l-9-0.3c0-3.8,1.5-7.2,4.5-10.1c3-3,7-4.4,11.8-4.4
			C479.6,28.4,485.4,34.1,485.4,44.6z M476.4,52.9l-8.5,0.6c-4.9,0.2-7.3,2-7.3,5.3c0,3.1,2.1,4.6,6.2,4.6c6,0,9.7-3,9.7-9V52.9z"/>
		<path class="st1" d="M523.7,41.4l-9,0.5c-0.4-3.9-2.7-5.8-7-5.8c-4.2,0-6.4,1.5-6.4,4.6c0,1.5,0.6,2.5,1.9,3.2
			c0.9,0.3,1.1,0.5,2.3,0.8l4.7,1.1c9.6,2.5,14.1,5.3,14.1,12.1c0,8.2-6.1,13.1-16.1,13.1c-9.7,0-15.8-4.9-16.8-13.1l9-0.6
			c0.5,3.9,3.1,5.9,8,5.9c4.2,0,7-1.7,7-4.6c0-1.6-0.6-2.7-1.8-3.4c-1.2-0.7-3.5-1.4-7.1-2.3c-2.5-0.6-4.5-1.1-5.8-1.6
			s-2.8-1.1-4.3-2c-2.9-1.8-4.1-4.5-4.1-8.4c0-7.4,5.8-12.4,15.6-12.4C517.3,28.4,522.8,33.7,523.7,41.4z"/>
		<path class="st1" d="M562.9,44.6v25.5h-9v-3.7c-3.1,3-6.9,4.5-11.1,4.5c-8.3,0-13.7-4.4-13.7-12c0-7.7,5-11.8,15-12.4l9.7-0.6
			v-1.2c0-5.7-2.4-8.5-7.3-8.5c-4.8,0-7.4,3-7.4,7l-9-0.3c0-3.8,1.5-7.2,4.5-10.1c3-3,7-4.4,11.8-4.4
			C557.1,28.4,562.9,34.1,562.9,44.6z M554,52.9l-8.5,0.6c-4.9,0.2-7.3,2-7.3,5.3c0,3.1,2.1,4.6,6.2,4.6c6,0,9.7-3,9.7-9V52.9z"/>
		<path class="st1" d="M630,33c2.8,3.1,4.2,7.2,4.2,12.2v24.9h-9V46.6c0-6.2-3.1-9.9-8.5-9.9c-5,0-8.3,3.4-8.9,8.5v0.2v24.7h-9V46.6
			c0-6.1-3.4-9.9-8.2-9.9c-5.5,0-9.3,4.2-9.3,10v23.4h-9v-41h8.5v5.4c2.3-4.1,6.3-6.2,11.8-6.2c6,0,10.3,2.5,13,7.4
			c2.8-5,7.3-7.4,13.3-7.4C623.5,28.4,627.2,29.9,630,33z"/>
	</g>
</g>
</svg>
